Coordinates
version=1
nRows=19
nColumns=24
inDegrees=yes

Units are S.I. units (second, meters, Newtons, ...)
Angles are in degrees.

endheader
time	pelvis_tilt	pelvis_list	pelvis_rotation	pelvis_tx	pelvis_ty	pelvis_tz	hip_flexion_r	hip_adduction_r	hip_rotation_r	knee_angle_r	ankle_angle_r	subtalar_angle_r	mtp_angle_r	hip_flexion_l	hip_adduction_l	hip_rotation_l	knee_angle_l	ankle_angle_l	subtalar_angle_l	mtp_angle_l	lumbar_extension	lumbar_bending	lumbar_rotation
      0.54200000	     -4.02125133	      4.67063783	      2.73851735	     -0.83359389	      0.97755141	      0.31111431	     29.04085638	     -3.68679170	     -7.52849770	     -5.55014534	      5.55915140	     -3.06560009	      0.91964856	    -12.34439196	      8.42053833	      3.73872428	     -5.26350545	      8.75971157	     -5.42038738	      0.05715882	      0.31821324	     -2.83376537	     -1.17886904
      0.54616667	     -4.06350311	      4.63200457	      2.70758664	     -0.82763068	      0.97700216	      0.31146477	     29.07904305	     -3.57139090	     -7.44781895	     -5.80472163	      5.23995930	     -3.38784622	      7.60170857	    -12.40150815	      8.34224061	      3.56585579	     -5.76295656	      8.84723855	     -5.08219403	     -0.67551061	      0.43352553	     -2.77865244	     -1.15173853
      0.55033333	     -4.08598027	      4.61312297	      2.68021573	     -0.82163052	      0.97651723	      0.31177658	     29.12220669	     -3.48946963	     -7.41327998	     -6.18198805	      5.01888203	     -3.31824455	      7.61896707	    -12.48928462	      8.28848732	      3.47473925	     -6.23732090	      8.82522483	     -4.89659468	     -0.65151053	      0.52036472	     -2.74332017	     -1.18340080
      0.55450000	     -4.14018116	      4.57564948	      2.64117853	     -0.81560057	      0.97600502	      0.31213056	     29.19087912	     -3.37579501	     -7.28377564	     -6.59153164	      4.78578248	     -3.41881577	      7.64923670	    -12.51233393	      8.21726586	      3.33952033	     -6.77344855	      8.80790804	     -4.68399663	     -0.60355448	      0.65161512	     -2.68820385	     -1.20956606
      0.55866667	     -4.16637273	      4.54113948	      2.59428964	     -0.80953959	      0.97557226	      0.31250750	     29.21794146	     -3.25878822	     -7.10166814	     -7.01781107	      4.48358151	     -3.58880341	      7.68901620	    -12.55349386	      8.14798239	      3.21095615	     -7.32950712	      8.75371521	     -4.47438980	     -0.53610479	      0.75212235	     -2.63355226	     -1.22776115
      0.56283333	     -4.21530938	      4.48219663	      2.54412829	     -0.80344835	      0.97513932	      0.31292059	     29.25713302	     -3.10773518	     -6.85340792	     -7.46385861	      4.20688861	     -3.93858425	      7.78806288	    -12.52230480	      8.04976524	      3.01290719	     -7.97176590	      8.74146485	     -4.19079928	     -0.36528644	      0.88507179	     -2.54864982	     -1.23620539
      0.56700000	     -4.25079123	      4.44795115	      2.47681162	     -0.79730981	      0.97475055	      0.31332218	     29.29065233	     -2.98267746	     -6.62329679	     -7.94660439	      3.77042172	     -4.08341066	      7.83297804	    -12.53159096	      7.98828214	      2.90651067	     -8.55774877	      8.55554163	     -4.08405862	     -0.27530617	      1.00343293	     -2.49551154	     -1.24100052
      0.57116667	     -4.30590572	      4.37651916	      2.41115479	     -0.79116542	      0.97436885	      0.31378388	     29.32500047	     -2.80512484	     -6.29341261	     -8.42835796	      3.41190201	     -4.59647209	      7.98233056	    -12.44170177	      7.87574632	      2.66659053	     -9.29684434	      8.50306949	     -3.77021682	      0.02570437	      1.15033953	     -2.39459774	     -1.23365484
      0.57533333	     -4.37527036	      4.32264081	      2.35766789	     -0.78500200	      0.97401520	      0.31421313	     29.36463211	     -2.65615706	     -5.98829543	     -8.90410935	      2.92669941	     -4.92209271	      8.10828485	    -12.32538709	      7.78669939	      2.51390839	    -10.05313592	      8.31674753	     -3.62193366	      0.30030399	      1.31268274	     -2.32655158	     -1.21870216
      0.57950000	     -4.42413968	      4.25278206	      2.26372958	     -0.77878567	      0.97370408	      0.31470058	     29.39600869	     -2.47042395	     -5.64202750	     -9.43267239	      2.46051211	     -5.39187934	      8.27470991	    -12.22113300	      7.68246409	      2.30023363	    -10.81507848	      8.13052796	     -3.39012904	      0.70354165	      1.46097339	     -2.21840892	     -1.20426728
      0.58366667	     -4.45107987	      4.19675721	      2.17528572	     -0.77255080	      0.97347569	      0.31517389	     29.38611211	     -2.30368245	     -5.29448399	     -9.93612055	      1.93789345	     -5.81386966	      9.84789474	    -12.12309298	      7.59284761	      2.13359433	    -11.59269911	      7.73118006	     -3.34098109	      4.76715129	      1.57503919	     -2.14392698	     -1.18595896
      0.58783333	     -4.52228893	      4.12824746	      2.10293863	     -0.76631070	      0.97321992	      0.31563151	     29.42564050	     -2.13687365	     -4.99460877	    -10.46237819	      1.43455448	     -6.07739703	      9.85786243	    -11.91872278	      7.48540848	      1.93588462	    -12.49046636	      7.44455514	     -3.15883322	      4.82211343	      1.75095395	     -2.04792305	     -1.17140139
      0.59200000	     -4.57743423	      4.03590631	      2.00090016	     -0.76004897	      0.97301324	      0.31615963	     29.44288505	     -1.92104456	     -4.61328988	    -10.99777622	      0.97197789	     -6.64175729	      9.88415737	    -11.70549789	      7.34932735	      1.68083662	    -13.43036077	      7.13939012	     -2.91320650	      5.00488378	      1.91065140	     -1.91369005	     -1.14448340
      0.59616667	     -4.64118146	      3.95436591	      1.91203811	     -0.75379091	      0.97284268	      0.31665374	     29.46720848	     -1.73071613	     -4.27358971	    -11.53472135	      0.47449988	     -7.06990505	      9.90851844	    -11.44919519	      7.22526974	      1.46997957	    -14.42050574	      6.75662006	     -2.75773776	      5.23333850	      2.07432545	     -1.80158261	     -1.11533910
      0.60033333	     -4.65234205	      3.84621832	      1.78838649	     -0.74750106	      0.97279018	      0.31723997	     29.39744039	     -1.48200935	     -3.82557027	    -12.00476335	      0.00169090	     -7.66698211	      9.97768252	    -11.22106337	      7.06332481	      1.18054864	    -15.44667804	      6.29421279	     -2.54305366	      6.00381077	      2.17539221	     -1.65609669	     -1.09763808
      0.60450000	     -4.73416402	      3.73933885	      1.72940926	     -0.74123555	      0.97267653	      0.31772345	     29.43242517	     -1.28406413	     -3.55054339	    -12.56028376	     -0.35282230	     -8.10040001	     10.01626086	    -10.86045095	      6.89321916	      0.96709730	    -16.57739388	      5.78538197	     -2.31701975	      6.64920828	      2.36924159	     -1.51611803	     -1.06558082
      0.60866667	     -4.78383158	      3.64189064	      1.63560808	     -0.73497615	      0.97263820	      0.31822138	     29.43381413	     -1.08579729	     -3.26028894	    -13.10843060	     -0.79949455	     -8.44019220	     10.15642593	    -10.51848776	      6.74375131	      0.76210940	    -17.71052091	      5.17123806	     -2.31205653	     10.74988824	      2.51543436	     -1.37941193	     -1.02859658
      0.61283333	     -4.84897809	      3.54049814	      1.56027526	     -0.72873559	      0.97260932	      0.31872246	     29.44946301	     -0.89547513	     -3.00792183	    -13.66390772	     -1.15679143	     -8.68364227	     10.14904430	    -10.10543522	      6.57504071	      0.53522881	    -18.94371973	      4.56368063	     -2.12593092	     10.80907309	      2.68275587	     -1.25175248	     -1.01982531
      0.61700000	     -4.89864361	      3.41461161	      1.48165641	     -0.72249639	      0.97263865	      0.31924907	     29.43685711	     -0.67571688	     -2.74324043	    -14.21012620	     -1.44762079	     -9.05807846	     10.13421584	     -9.67161632	      6.37039166	      0.28791687	    -20.22880655	      3.93194295	     -1.92583595	     10.93463389	      2.83060638	     -1.08886552	     -1.00252338
